<?xml version="1.0" encoding="utf-8"?>
<!-- Generator: Adobe Illustrator 17.0.0, SVG Export Plug-In . SVG Version: 6.00 Build 0)  -->
<!DOCTYPE svg PUBLIC "-//W3C//DTD SVG 1.1//EN" "http://www.w3.org/Graphics/SVG/1.1/DTD/svg11.dtd">
<svg version="1.1" id="Layer_1" xmlns:sketch="http://www.bohemiancoding.com/sketch/ns"
	 xmlns="http://www.w3.org/2000/svg" xmlns:xlink="http://www.w3.org/1999/xlink" x="0px" y="0px" width="350px" height="87px"
	 viewBox="0 0 350 87" enable-background="new 0 0 350 87" xml:space="preserve">
<title>logo</title>
<desc>Created with Sketch.</desc>
<g id="Page-1" sketch:type="MSPage">
	<path id="Stringsync" sketch:type="MSShapeGroup" d="M121.905,28.512c-1.616-2.373-3.972-3.559-7.067-3.559
		c-0.963,0-1.909,0.129-2.837,0.387c-0.929,0.258-1.762,0.653-2.502,1.186c-0.739,0.533-1.333,1.221-1.78,2.063
		c-0.447,0.843-0.671,1.831-0.671,2.966c0,1.651,0.464,2.932,1.393,3.843c0.929,0.911,2.081,1.659,3.456,2.244
		c1.376,0.585,2.88,1.109,4.514,1.573c1.634,0.464,3.138,1.083,4.514,1.857s2.528,1.797,3.456,3.069
		c0.929,1.272,1.393,3.009,1.393,5.21c0,1.651-0.352,3.138-1.057,4.462c-0.705,1.324-1.634,2.433-2.786,3.327
		c-1.152,0.894-2.442,1.582-3.869,2.063c-1.427,0.481-2.863,0.722-4.307,0.722c-2.235,0-4.359-0.421-6.371-1.264
		c-2.012-0.843-3.723-2.227-5.133-4.153l3.353-2.424c0.791,1.341,1.891,2.416,3.301,3.224c1.41,0.808,3.078,1.212,5.004,1.212
		c0.929,0,1.857-0.146,2.786-0.438c0.929-0.292,1.762-0.722,2.502-1.29c0.739-0.567,1.35-1.264,1.831-2.089
		c0.481-0.825,0.722-1.771,0.722-2.837c0-1.272-0.267-2.33-0.8-3.172c-0.533-0.843-1.238-1.548-2.115-2.115
		c-0.877-0.567-1.874-1.04-2.992-1.419c-1.118-0.378-2.27-0.757-3.456-1.135c-1.186-0.378-2.339-0.808-3.456-1.29
		c-1.118-0.481-2.115-1.092-2.992-1.831c-0.877-0.739-1.582-1.668-2.115-2.786c-0.533-1.118-0.8-2.519-0.8-4.204
		c0-1.754,0.335-3.284,1.006-4.591c0.671-1.307,1.565-2.39,2.682-3.25c1.118-0.86,2.381-1.496,3.791-1.909
		c1.41-0.413,2.854-0.619,4.333-0.619c2.063,0,3.938,0.327,5.623,0.98c1.685,0.653,3.25,1.805,4.694,3.456L121.905,28.512z
		 M144.551,37.952h-6.964V52.19c0,0.894,0.086,1.625,0.258,2.192c0.172,0.567,0.413,1.006,0.722,1.315
		c0.309,0.31,0.679,0.524,1.109,0.645c0.43,0.12,0.903,0.181,1.419,0.181c0.585,0,1.186-0.086,1.805-0.258
		c0.619-0.172,1.186-0.395,1.702-0.671l0.155,3.147c-1.272,0.585-2.803,0.877-4.591,0.877c-0.653,0-1.333-0.086-2.038-0.258
		c-0.705-0.172-1.35-0.499-1.934-0.98s-1.066-1.135-1.444-1.96c-0.378-0.825-0.567-1.909-0.567-3.25V37.952h-5.107v-3.095h5.107
		v-6.809h3.405v6.809h6.964V37.952z M149.555,42.389c0-1.066-0.026-2.149-0.077-3.25c-0.052-1.1-0.095-2.528-0.129-4.282h3.353
		v4.488h0.103c0.241-0.653,0.585-1.281,1.032-1.883s0.989-1.143,1.625-1.625s1.376-0.868,2.218-1.161
		c0.843-0.292,1.797-0.438,2.863-0.438c0.963,0,1.805,0.103,2.528,0.31l-0.671,3.353c-0.447-0.172-1.1-0.258-1.96-0.258
		c-1.307,0-2.424,0.249-3.353,0.748c-0.929,0.499-1.702,1.135-2.321,1.909s-1.075,1.608-1.367,2.502
		c-0.292,0.894-0.438,1.754-0.438,2.579v13.618h-3.405V42.389z M171.272,25.572c0,0.722-0.258,1.315-0.774,1.78
		c-0.516,0.464-1.083,0.696-1.702,0.696c-0.619,0-1.186-0.232-1.702-0.696c-0.516-0.464-0.774-1.057-0.774-1.78
		c0-0.722,0.258-1.315,0.774-1.78c0.516-0.464,1.083-0.696,1.702-0.696c0.619,0,1.186,0.232,1.702,0.696
		C171.014,24.257,171.272,24.85,171.272,25.572L171.272,25.572z M170.498,58.999h-3.405V34.857h3.405V58.999z M181.95,34.857
		c0.069,0.653,0.112,1.298,0.129,1.934c0.017,0.636,0.026,1.281,0.026,1.934h0.103c0.378-0.653,0.86-1.255,1.444-1.805
		c0.585-0.55,1.238-1.023,1.96-1.419c0.722-0.395,1.487-0.705,2.296-0.929c0.808-0.224,1.608-0.335,2.399-0.335
		c3.095,0,5.382,0.817,6.861,2.45c1.479,1.634,2.218,3.963,2.218,6.99v15.321h-3.405v-13.36c0-2.682-0.464-4.737-1.393-6.164
		c-0.929-1.427-2.648-2.141-5.158-2.141c-0.172,0-0.653,0.069-1.444,0.206c-0.791,0.138-1.625,0.516-2.502,1.135
		c-0.877,0.619-1.659,1.548-2.347,2.786c-0.688,1.238-1.032,2.958-1.032,5.158v12.38H178.7V40.171c0-0.653-0.026-1.479-0.077-2.476
		c-0.052-0.997-0.112-1.943-0.181-2.837H181.95z M209.858,46.619c0,1.272,0.232,2.467,0.696,3.585c0.464,1.118,1.1,2.098,1.909,2.94
		c0.808,0.843,1.754,1.513,2.837,2.012c1.083,0.499,2.261,0.748,3.534,0.748c1.238,0,2.416-0.224,3.534-0.671
		c1.118-0.447,2.106-1.075,2.966-1.883c0.86-0.808,1.522-1.78,1.986-2.915s0.679-2.407,0.645-3.817c0-1.272-0.206-2.467-0.619-3.585
		c-0.413-1.118-1.014-2.098-1.805-2.94c-0.791-0.843-1.754-1.513-2.889-2.012s-2.407-0.748-3.817-0.748
		c-1.272,0-2.45,0.249-3.534,0.748c-1.083,0.499-2.029,1.169-2.837,2.012c-0.808,0.843-1.444,1.823-1.909,2.94
		C210.09,44.151,209.858,45.346,209.858,46.619L209.858,46.619z M209.239,63.848c0.997,1.341,2.296,2.416,3.895,3.224
		s3.379,1.212,5.339,1.212c1.719,0,3.181-0.249,4.385-0.748s2.175-1.178,2.915-2.038s1.272-1.866,1.599-3.018
		c0.327-1.152,0.49-2.382,0.49-3.688V54.46h-0.103c-1.1,1.651-2.442,2.82-4.024,3.508c-1.582,0.688-3.25,1.032-5.004,1.032
		s-3.396-0.31-4.926-0.929c-1.53-0.619-2.863-1.47-3.998-2.553s-2.029-2.381-2.682-3.895c-0.653-1.513-0.98-3.147-0.98-4.901
		s0.31-3.387,0.929-4.901s1.47-2.837,2.553-3.972c1.083-1.135,2.373-2.02,3.869-2.657c1.496-0.636,3.138-0.954,4.926-0.954
		c0.722,0,1.487,0.069,2.296,0.206s1.616,0.378,2.424,0.722c0.808,0.344,1.608,0.817,2.399,1.419s1.53,1.367,2.218,2.296h0.103
		v-4.024h3.405v23.935c0,1.307-0.163,2.7-0.49,4.178s-0.963,2.837-1.909,4.075s-2.261,2.27-3.946,3.095
		c-1.685,0.825-3.886,1.238-6.603,1.238c-2.407,0-4.557-0.395-6.448-1.186c-1.891-0.791-3.611-2.012-5.158-3.663L209.239,63.848z
		 M251.693,40.583c-0.516-0.997-1.204-1.788-2.063-2.373c-0.86-0.585-1.909-0.877-3.147-0.877c-0.585,0-1.178,0.069-1.78,0.206
		c-0.602,0.138-1.143,0.352-1.625,0.645c-0.481,0.292-0.868,0.662-1.161,1.109c-0.292,0.447-0.438,0.997-0.438,1.651
		c0,1.135,0.395,1.96,1.186,2.476c0.791,0.516,1.977,0.963,3.559,1.341l3.456,0.825c1.685,0.378,3.087,1.143,4.204,2.296
		c1.118,1.152,1.677,2.588,1.677,4.307c0,1.307-0.267,2.433-0.8,3.379c-0.533,0.946-1.238,1.719-2.115,2.321
		c-0.877,0.602-1.883,1.04-3.018,1.315c-1.135,0.275-2.287,0.413-3.456,0.413c-1.857,0-3.585-0.352-5.184-1.057
		c-1.599-0.705-2.966-1.917-4.101-3.637l2.94-2.012c0.688,1.1,1.556,1.977,2.605,2.631c1.049,0.653,2.296,0.98,3.74,0.98
		c0.688,0,1.376-0.077,2.063-0.232c0.688-0.155,1.298-0.395,1.831-0.722c0.533-0.327,0.963-0.748,1.29-1.264
		c0.327-0.516,0.49-1.118,0.49-1.805c0-1.204-0.447-2.072-1.341-2.605c-0.894-0.533-1.977-0.954-3.25-1.264l-3.301-0.774
		c-0.413-0.103-0.971-0.275-1.676-0.516c-0.705-0.241-1.393-0.602-2.063-1.083s-1.247-1.109-1.728-1.883
		c-0.481-0.774-0.722-1.728-0.722-2.863c0-1.238,0.249-2.321,0.748-3.25c0.499-0.929,1.169-1.685,2.012-2.27
		c0.843-0.585,1.797-1.023,2.863-1.315c1.066-0.292,2.167-0.438,3.301-0.438c1.685,0,3.25,0.327,4.694,0.98
		c1.444,0.653,2.562,1.771,3.353,3.353L251.693,40.583z M269.851,54.821l7.377-19.963h4.127l-12.071,30.435
		c-0.722,1.857-1.642,3.336-2.76,4.436c-1.118,1.1-2.725,1.651-4.823,1.651c-0.516,0-1.04-0.017-1.573-0.052
		c-0.533-0.034-1.057-0.138-1.573-0.31l0.361-3.301c0.722,0.378,1.582,0.567,2.579,0.567c1.204,0,2.149-0.378,2.837-1.135
		s1.29-1.823,1.805-3.198l1.754-4.643l-9.904-24.451h4.282L269.851,54.821z M288.989,34.857c0.069,0.653,0.112,1.298,0.129,1.934
		c0.017,0.636,0.026,1.281,0.026,1.934h0.103c0.378-0.653,0.86-1.255,1.444-1.805c0.585-0.55,1.238-1.023,1.96-1.419
		c0.722-0.395,1.487-0.705,2.296-0.929c0.808-0.224,1.608-0.335,2.399-0.335c3.095,0,5.382,0.817,6.861,2.45
		c1.479,1.634,2.218,3.963,2.218,6.99v15.321h-3.405v-13.36c0-2.682-0.464-4.737-1.393-6.164c-0.929-1.427-2.648-2.141-5.158-2.141
		c-0.172,0-0.653,0.069-1.444,0.206c-0.791,0.138-1.625,0.516-2.502,1.135s-1.659,1.548-2.347,2.786s-1.032,2.958-1.032,5.158v12.38
		h-3.405V40.171c0-0.653-0.026-1.479-0.077-2.476c-0.052-0.997-0.112-1.943-0.181-2.837H288.989z M332.011,40.532
		c-0.585-0.894-1.401-1.651-2.45-2.27c-1.049-0.619-2.244-0.929-3.585-0.929c-1.41-0.034-2.674,0.189-3.792,0.671
		c-1.118,0.481-2.072,1.152-2.863,2.012c-0.791,0.86-1.393,1.883-1.805,3.069c-0.413,1.186-0.619,2.467-0.619,3.843
		c0,1.376,0.206,2.657,0.619,3.843c0.413,1.186,1.014,2.21,1.805,3.069c0.791,0.86,1.745,1.53,2.863,2.012
		c1.118,0.481,2.382,0.705,3.792,0.671c1.341,0,2.536-0.31,3.585-0.929c1.049-0.619,1.866-1.376,2.45-2.27l2.786,2.115
		c-1.204,1.41-2.562,2.45-4.075,3.121c-1.513,0.671-3.095,1.023-4.746,1.057c-1.96,0.034-3.731-0.267-5.313-0.903
		c-1.582-0.636-2.932-1.522-4.049-2.657s-1.969-2.485-2.553-4.049c-0.585-1.565-0.877-3.258-0.877-5.081
		c0-1.823,0.292-3.516,0.877-5.081s1.436-2.915,2.553-4.049c1.118-1.135,2.467-2.02,4.049-2.657s3.353-0.937,5.313-0.903
		c1.651,0.034,3.233,0.387,4.746,1.057c1.513,0.671,2.872,1.711,4.075,3.121L332.011,40.532z"/>
</g>
<g>
	<path id="Shape_1_" sketch:type="MSShapeGroup" d="M40.026,43.391c3.441-3.703,5.851-7.895,7.27-12.332h5.696V27.29H39.384v-3.759
		h-3.888v3.76H21.889v3.741h21.713C42.29,34.66,40.239,38.1,37.44,41.108c-1.808-1.945-3.304-4.061-4.491-6.298h-3.888
		c1.419,3.064,3.363,5.959,5.793,8.572l-9.885,9.447l2.751,2.66l9.719-9.399l6.046,5.847c0-0.002,1.478-3.827,1.478-3.827
		 M55.907,38.569h-3.888l-8.748,22.558h3.888l2.186-5.64h9.233l2.186,5.64h3.888L55.907,38.569 M50.804,51.729l3.159-8.149
		l3.159,8.149H50.804"/>
</g>
<g>
	<g>
		<path stroke="#000000" stroke-miterlimit="10" d="M63.111,29.713c0.954,0.041,1.762-0.699,1.803-1.653l0.669-15.442
			c6.72,4.96,11.634,11.771,14.225,19.754c6.79,20.922-4.707,43.467-25.629,50.257c-0.908,0.295-1.406,1.271-1.111,2.179
			s1.271,1.406,2.179,1.111c22.736-7.379,35.23-31.88,27.851-54.615c-2.596-7.999-7.341-14.916-13.79-20.174l12.793-1.345
			c0.95-0.1,1.639-0.951,1.539-1.901c-0.013-0.123-0.038-0.241-0.075-0.355c-0.247-0.761-0.999-1.271-1.826-1.184L62.304,8.389
			l-0.845,19.522C61.418,28.863,62.157,29.671,63.111,29.713z M4.238,56.219c2.597,8.002,7.342,14.919,13.788,20.174L5.235,77.738
			c-0.95,0.1-1.639,0.95-1.539,1.901c0.099,0.947,0.951,1.64,1.901,1.539l19.434-2.043l0.845-19.522
			c0.009-0.212-0.02-0.418-0.082-0.609c-0.217-0.667-0.83-1.161-1.571-1.194c-0.954-0.041-1.762,0.699-1.803,1.653l-0.67,15.444
			c-6.717-4.957-11.631-11.77-14.223-19.756c-6.79-20.921,4.706-43.465,25.627-50.255c0.908-0.295,1.406-1.271,1.111-2.179
			s-1.271-1.406-2.179-1.111C9.352,8.985-3.141,33.484,4.238,56.219z"/>
	</g>
</g>
</svg>
