<?xml version="1.0" encoding="UTF-8" standalone="no"?>
<svg width="350px" height="87px" viewBox="0 0 350 87" version="1.1" xmlns="http://www.w3.org/2000/svg" xmlns:xlink="http://www.w3.org/1999/xlink" xmlns:sketch="http://www.bohemiancoding.com/sketch/ns">
    <title>logo</title>
    <desc>Created with Sketch.</desc>
    <defs></defs>
    <g id="Page-1" stroke="none" stroke-width="1" fill="none" fill-rule="evenodd" sketch:type="MSPage">
        <g id="sync" sketch:type="MSLayerGroup" fill="#000000">
            <path d="M12.9578728,12.6247313 L1.08996532,1.1476073 L1.08996532,31.7536215 L32.7380809,31.7536215 L20.8701734,20.2764976 C33.924763,7.65176628 55.2872139,7.65176628 68.3418035,20.2764976 C72.2974104,24.1018552 75.067422,29.0758711 76.6496647,33.6663004 L88.5175723,33.6663004 C86.1442081,26.0145341 82.5841618,18.7463545 76.254104,12.6247313 C58.8472601,-4.20789345 30.3647168,-4.20789345 12.9578728,12.6247313 L12.9578728,12.6247313 Z M68.3418035,66.1849934 C55.2872139,78.8097247 33.924763,78.8097247 20.8701734,66.1849934 C16.9145665,62.3596357 14.1445549,57.3856198 12.5623121,52.7951906 L0.694404624,52.7951906 C3.06776879,60.4469569 6.62781503,67.7151365 12.9578728,73.8367597 C30.3636301,90.6693844 58.8472601,90.6693844 76.2530173,73.8367597 L88.1209249,85.3128327 L88.1209249,54.7078694 L56.473896,54.7078694 L68.3418035,66.1849934 L68.3418035,66.1849934 Z" id="Shape" sketch:type="MSShapeGroup"></path>
        </g>
        <path d="M39.6962543,45.4492428 C43.5062428,41.3485434 46.1751908,36.706619 47.7465665,31.7935566 L54.0538035,31.7935566 L54.0538035,27.6192926 L38.9855491,27.6192926 L38.9855491,23.4565889 L34.6800231,23.4565889 L34.6800231,27.6203436 L19.6117688,27.6203436 L19.6117688,31.7630798 L43.6562081,31.7630798 C42.2032832,35.7807563 39.9320694,39.5903502 36.8327861,42.9207234 C34.8310751,40.7663324 33.1738497,38.4238262 31.8600231,35.9468021 L27.5544971,35.9468021 C29.1258728,39.3402306 31.2786358,42.5455441 33.9693179,45.4397845 L23.0229364,55.9006664 L26.0689711,58.846402 L36.8316994,48.4380662 L43.5268902,54.9127993 C43.5268902,54.9106975 45.1634682,50.6744291 45.1634682,50.6744291 M57.2824046,40.1095058 L52.9768786,40.1095058 L43.2899884,65.0899322 L47.5955145,65.0899322 L50.0166936,58.8443002 L60.2415029,58.8443002 L62.6626821,65.0899322 L66.9682081,65.0899322 L57.2824046,40.1095058 M51.6315376,54.6826473 L55.1296416,45.6583763 L58.6277457,54.6826473 L51.6315376,54.6826473" id="Shape" fill="#000000" sketch:type="MSShapeGroup"></path>
        <path d="M128.998591,31.4063817 C127.326908,28.9522096 124.890557,27.725142 121.689463,27.725142 C120.693567,27.725142 119.715469,27.8585189 118.755141,28.1252767 C117.794813,28.3920346 116.932309,28.8010571 116.167603,29.3523566 C115.402897,29.9036562 114.789363,30.6149997 114.326983,31.4864086 C113.864603,32.3578176 113.633416,33.3803739 113.633416,34.5541084 C113.633416,36.2613585 114.113573,37.5862359 115.073901,38.5287802 C116.03423,39.4713246 117.22573,40.2449107 118.648438,40.8495618 C120.071147,41.4542129 121.627211,41.9966123 123.316677,42.4767764 C125.006143,42.9569406 126.562207,43.5971497 127.984916,44.3974232 C129.407624,45.1976968 130.599125,46.2558203 131.559453,47.5718256 C132.519781,48.8878309 132.999938,50.6839734 132.999938,52.9603069 C132.999938,54.667557 132.635375,56.2058375 131.906236,57.5751943 C131.177098,58.9445512 130.216785,60.0915927 129.025266,61.0163532 C127.833748,61.9411137 126.499979,62.6524572 125.023919,63.1504052 C123.547859,63.6483532 122.062929,63.8973234 120.569085,63.8973234 C118.257184,63.8973234 116.060911,63.4616255 113.9802,62.5902165 C111.899489,61.7188076 110.130022,60.2872287 108.671745,58.2954369 L112.13958,55.7879258 C112.957637,57.1750665 114.095787,58.2865408 115.554063,59.122382 C117.012339,59.9582233 118.737347,60.3761376 120.729139,60.3761376 C121.689467,60.3761376 122.649781,60.2249771 123.610109,59.9226515 C124.570438,59.620326 125.432942,59.1757363 126.197647,58.588869 C126.962353,58.0020018 127.593671,57.2817665 128.091619,56.4281414 C128.589567,55.5745163 128.838537,54.5964189 128.838537,53.4938199 C128.838537,52.1778146 128.562891,51.0841239 128.011592,50.2127149 C127.460292,49.341306 126.731165,48.6121789 125.824188,48.0253116 C124.917212,47.4384444 123.885764,46.9493957 122.729813,46.5581509 C121.573862,46.1669061 120.382362,45.7756671 119.155276,45.3844223 C117.92819,44.9931775 116.736689,44.5485878 115.580739,44.0506398 C114.424788,43.5526918 113.39334,42.9213744 112.486363,42.1566687 C111.579387,41.3919629 110.85026,40.4316491 110.29896,39.2756984 C109.74766,38.1197478 109.472015,36.6703853 109.472015,34.9275675 C109.472015,33.1136142 109.818795,31.5308748 110.512365,30.1793018 C111.205936,28.8277288 112.130682,27.7073627 113.286633,26.8181699 C114.442583,25.9289771 115.749677,25.2709843 117.207953,24.8441718 C118.66623,24.4173593 120.160051,24.2039562 121.689463,24.2039562 C123.823525,24.2039562 125.761936,24.5418444 127.504754,25.2176309 C129.247572,25.8934174 130.865879,27.0849179 132.359723,28.792168 L128.998591,31.4063817 Z M152.419811,41.1696696 L145.217386,41.1696696 L145.217386,55.8946284 C145.217386,56.8193889 145.306304,57.5751914 145.484142,58.1620586 C145.661981,58.7489259 145.910951,59.2024074 146.231061,59.5225168 C146.55117,59.8426262 146.933517,60.0649211 147.378113,60.189408 C147.82271,60.313895 148.311759,60.3761376 148.845274,60.3761376 C149.449925,60.3761376 150.072351,60.2872197 150.71257,60.1093811 C151.352789,59.9315425 151.939647,59.7003559 152.473163,59.4158142 L152.633217,62.6702435 C151.317211,63.2748946 149.734472,63.5772156 147.884951,63.5772156 C147.209164,63.5772156 146.506713,63.4882977 145.777574,63.3104591 C145.048436,63.1326205 144.381552,62.7947324 143.776901,62.2967844 C143.17225,61.7988364 142.674309,61.1230601 142.283064,60.269435 C141.89182,59.4158099 141.6962,58.2954438 141.6962,56.9083031 L141.6962,41.1696696 L136.414421,41.1696696 L136.414421,37.9685916 L141.6962,37.9685916 L141.6962,30.92622 L145.217386,30.92622 L145.217386,37.9685916 L152.419811,37.9685916 L152.419811,41.1696696 Z M157.594887,45.7578814 C157.594887,44.6552824 157.568212,43.5349163 157.51486,42.3967495 C157.461509,41.2585827 157.41705,39.7825449 157.381482,37.9685916 L160.849317,37.9685916 L160.849317,42.6101547 L160.956019,42.6101547 C161.204993,41.9343682 161.560665,41.2852672 162.023045,40.6628322 C162.485426,40.0403973 163.045609,39.4802143 163.703611,38.9822663 C164.361614,38.4843183 165.126308,38.0841876 165.997717,37.7818621 C166.869126,37.4795365 167.856115,37.328376 168.958714,37.328376 C169.95461,37.328376 170.826006,37.4350775 171.572928,37.6484838 L170.879361,41.1163183 C170.416981,40.9384797 169.741205,40.8495618 168.852012,40.8495618 C167.500439,40.8495618 166.344505,41.1074238 165.384177,41.6231557 C164.423849,42.1388875 163.623588,42.7968802 162.983369,43.5971537 C162.34315,44.3974273 161.871885,45.2599313 161.569559,46.1846918 C161.267234,47.1094523 161.116073,47.9986317 161.116073,48.8522568 L161.116073,62.937 L157.594887,62.937 L157.594887,45.7578814 Z M180.055785,28.3653576 C180.055785,29.1122795 179.789031,29.7258133 179.255515,30.2059774 C178.722,30.6861416 178.135141,30.92622 177.494922,30.92622 C176.854704,30.92622 176.267845,30.6861416 175.734329,30.2059774 C175.200814,29.7258133 174.93406,29.1122795 174.93406,28.3653576 C174.93406,27.6184357 175.200814,27.0049019 175.734329,26.5247377 C176.267845,26.0445736 176.854704,25.8044952 177.494922,25.8044952 C178.135141,25.8044952 178.722,26.0445736 179.255515,26.5247377 C179.789031,27.0049019 180.055785,27.6184357 180.055785,28.3653576 L180.055785,28.3653576 Z M179.255515,62.937 L175.734329,62.937 L175.734329,37.9685916 L179.255515,37.9685916 L179.255515,62.937 Z M191.099504,37.9685916 C191.170639,38.6443781 191.215098,39.3112627 191.232882,39.9692654 C191.250666,40.627268 191.259558,41.2941526 191.259558,41.9699391 L191.36626,41.9699391 C191.757505,41.2941526 192.255446,40.671727 192.860097,40.1026436 C193.464748,39.5335602 194.140524,39.0445115 194.887446,38.6354828 C195.634368,38.2264542 196.425738,37.9063496 197.261579,37.6751594 C198.09742,37.4439693 198.924357,37.328376 199.742414,37.328376 C202.943508,37.328376 205.308726,38.1730965 206.838137,39.8625627 C208.367549,41.552029 209.132243,43.9617053 209.132243,47.0916639 L209.132243,62.937 L205.611057,62.937 L205.611057,49.1190133 C205.611057,46.3447318 205.130901,44.219593 204.170572,42.7435329 C203.210244,41.2674729 201.431885,40.529454 198.835442,40.529454 C198.657604,40.529454 198.159663,40.6005884 197.341606,40.7428592 C196.523549,40.88513 195.661045,41.276369 194.754068,41.9165878 C193.847091,42.5568066 193.037938,43.5171204 192.326584,44.797558 C191.61523,46.0779956 191.259558,47.8563545 191.259558,50.132688 L191.259558,62.937 L187.738372,62.937 L187.738372,43.4637755 C187.738372,42.787989 187.711697,41.9343767 187.658345,40.9029131 C187.604993,39.8714495 187.542751,38.8933521 187.471615,37.9685916 L191.099504,37.9685916 Z M219.962557,50.132688 C219.962557,51.4486933 220.202636,52.6846527 220.6828,53.8406033 C221.162964,54.996554 221.820957,56.0102185 222.656798,56.8816274 C223.492639,57.7530364 224.470736,58.4465963 225.591119,58.9623281 C226.711502,59.47806 227.929678,59.735922 229.245683,59.735922 C230.526121,59.735922 231.744297,59.5047353 232.900247,59.0423551 C234.056198,58.5799749 235.078754,57.9308739 235.967947,57.0950326 C236.85714,56.2591914 237.541808,55.2544187 238.021972,54.0806842 C238.502136,52.9069497 238.724431,51.5909642 238.688863,50.132688 C238.688863,48.8166827 238.47546,47.5807233 238.048648,46.4247726 C237.621835,45.268822 236.99941,44.2551575 236.181352,43.3837485 C235.363295,42.5123396 234.367414,41.8187797 233.19368,41.3030478 C232.019945,40.787316 230.70396,40.529454 229.245683,40.529454 C227.929678,40.529454 226.711502,40.787316 225.591119,41.3030478 C224.470736,41.8187797 223.492639,42.5123396 222.656798,43.3837485 C221.820957,44.2551575 221.162964,45.268822 220.6828,46.4247726 C220.202636,47.5807233 219.962557,48.8166827 219.962557,50.132688 L219.962557,50.132688 Z M219.322342,67.9520222 C220.353805,69.3391629 221.696466,70.4506372 223.350365,71.2864785 C225.004263,72.1223197 226.844865,72.540234 228.872224,72.540234 C230.65061,72.540234 232.162215,72.282372 233.407085,71.7666402 C234.651955,71.2509083 235.656727,70.5484566 236.421433,69.6592638 C237.186139,68.770071 237.73743,67.7297311 238.075323,66.5382127 C238.413217,65.3466944 238.582161,64.0751678 238.582161,62.7235948 L238.582161,58.2420856 L238.475458,58.2420856 C237.337291,59.9493357 235.950172,61.1586198 234.314057,61.869974 C232.677942,62.5813282 230.952934,62.937 229.138981,62.937 C227.325027,62.937 225.626695,62.6168954 224.043932,61.9766766 C222.461168,61.3364578 221.08294,60.4561702 219.909206,59.3357872 C218.735471,58.2154043 217.810725,56.8727434 217.134938,55.3077641 C216.459152,53.7427848 216.121264,52.0533439 216.121264,50.2393906 C216.121264,48.4254373 216.441368,46.7359964 217.081587,45.1710171 C217.721806,43.6060378 218.602093,42.2367015 219.722476,41.062967 C220.842859,39.8892325 222.176628,38.9733777 223.723824,38.3153751 C225.271019,37.6573724 226.969352,37.328376 228.818873,37.328376 C229.565795,37.328376 230.357165,37.3995104 231.193006,37.5417812 C232.028847,37.684052 232.864676,37.9330223 233.700517,38.2886994 C234.536358,38.6443765 235.363295,39.1334252 236.181352,39.7558601 C236.99941,40.3782951 237.764104,41.1696648 238.475458,42.129993 L238.582161,42.129993 L238.582161,37.9685916 L242.103347,37.9685916 L242.103347,62.7235948 C242.103347,64.0751678 241.934403,65.5156385 241.596509,67.0450501 C241.258616,68.5744617 240.600623,69.9793652 239.622511,71.2598028 C238.644399,72.5402404 237.283955,73.6072557 235.541137,74.4608808 C233.798319,75.3145059 231.52202,75.741312 228.71217,75.741312 C226.222431,75.741312 223.999482,75.3322895 222.043258,74.5142321 C220.087034,73.6961747 218.308675,72.4335399 216.708128,70.7262898 L219.322342,67.9520222 Z M263.230461,43.8905859 C262.696946,42.8591223 261.985602,42.0410772 261.096409,41.4364261 C260.207217,40.831775 259.122418,40.529454 257.84198,40.529454 C257.237329,40.529454 256.623795,40.6005884 256.00136,40.7428592 C255.378925,40.88513 254.818742,41.1074249 254.320794,41.4097504 C253.822846,41.712076 253.422716,42.0944232 253.12039,42.5568034 C252.818065,43.0191836 252.666904,43.5882585 252.666904,44.264045 C252.666904,45.4377795 253.075927,46.2913917 253.893984,46.8249074 C254.712041,47.3584231 255.939109,47.8207964 257.575224,48.2120412 L261.149761,49.065662 C262.892579,49.4569068 264.341941,50.2482765 265.497892,51.4397948 C266.653842,52.6313132 267.231809,54.1162428 267.231809,55.8946284 C267.231809,57.2462014 266.956163,58.4110265 266.404864,59.3891385 C265.853564,60.3672506 265.124437,61.1675121 264.21746,61.789947 C263.310484,62.412382 262.270144,62.8658635 261.096409,63.1504052 C259.922675,63.4349469 258.731175,63.5772156 257.521872,63.5772156 C255.601216,63.5772156 253.813965,63.212652 252.160067,62.483514 C250.506168,61.7543759 249.092373,60.5006329 247.918638,58.7222473 L250.959662,56.6415466 C251.671017,57.7797134 252.569088,58.6866764 253.653903,59.3624629 C254.738718,60.0382494 256.028028,60.3761376 257.521872,60.3761376 C258.233227,60.3761376 258.94457,60.2961115 259.655924,60.1360567 C260.367279,59.976002 260.998596,59.7270318 261.549895,59.3891385 C262.101195,59.0512453 262.545785,58.6155474 262.883678,58.0820317 C263.221571,57.548516 263.390515,56.9260904 263.390515,56.2147362 C263.390515,54.9698663 262.928142,54.0717951 262.003382,53.5204955 C261.078621,52.969196 259.958255,52.5334981 258.64225,52.2133887 L255.227766,51.4131192 C254.800954,51.3064161 254.222987,51.1285802 253.493849,50.8796062 C252.764711,50.6306322 252.053368,50.2571769 251.359797,49.7592289 C250.666227,49.2612809 250.070477,48.61218 249.572529,47.8119064 C249.074581,47.0116329 248.82561,46.0246438 248.82561,44.8509093 C248.82561,43.5704717 249.083472,42.4501056 249.599204,41.4897774 C250.114936,40.5294492 250.808496,39.7469713 251.679905,39.1423202 C252.551314,38.5376691 253.538303,38.0841876 254.640902,37.7818621 C255.743501,37.4795365 256.881651,37.328376 258.055385,37.328376 C259.798203,37.328376 261.41651,37.6662642 262.910354,38.3420507 C264.404198,39.0178372 265.560131,40.1737705 266.378188,41.8098852 L263.230461,43.8905859 Z M282.010119,58.6155447 L289.639355,37.9685916 L293.907459,37.9685916 L281.423255,69.4458586 C280.676333,71.366515 279.724911,72.8959036 278.56896,74.0340704 C277.41301,75.1722372 275.750244,75.741312 273.580614,75.741312 C273.047098,75.741312 272.504699,75.7235284 271.953399,75.6879607 C271.402099,75.652393 270.8597,75.5456915 270.326184,75.3678529 L270.699643,71.9533697 C271.446565,72.3446145 272.335745,72.540234 273.367208,72.540234 C274.612078,72.540234 275.590176,72.148995 276.30153,71.3665054 C277.012884,70.5840158 277.63531,69.4814332 278.168825,68.0587248 L279.98277,63.2571078 L269.73932,37.9685916 L274.167478,37.9685916 L282.010119,58.6155447 Z M301.803451,37.9685916 C301.874587,38.6443781 301.919046,39.3112627 301.93683,39.9692654 C301.954613,40.627268 301.963505,41.2941526 301.963505,41.9699391 L302.070208,41.9699391 C302.461453,41.2941526 302.959393,40.671727 303.564044,40.1026436 C304.168695,39.5335602 304.844472,39.0445115 305.591394,38.6354828 C306.338316,38.2264542 307.129685,37.9063496 307.965526,37.6751594 C308.801368,37.4439693 309.628305,37.328376 310.446362,37.328376 C313.647456,37.328376 316.012673,38.1730965 317.542085,39.8625627 C319.071496,41.552029 319.836191,43.9617053 319.836191,47.0916639 L319.836191,62.937 L316.315005,62.937 L316.315005,49.1190133 C316.315005,46.3447318 315.834848,44.219593 314.87452,42.7435329 C313.914192,41.2674729 312.135833,40.529454 309.53939,40.529454 C309.361551,40.529454 308.863611,40.6005884 308.045553,40.7428592 C307.227496,40.88513 306.364992,41.276369 305.458015,41.9165878 C304.551039,42.5568066 303.741885,43.5171204 303.030531,44.797558 C302.319177,46.0779956 301.963505,47.8563545 301.963505,50.132688 L301.963505,62.937 L298.442319,62.937 L298.442319,43.4637755 C298.442319,42.787989 298.415644,41.9343767 298.362292,40.9029131 C298.308941,39.8714495 298.246698,38.8933521 298.175563,37.9685916 L301.803451,37.9685916 Z M346.298436,43.8372346 C345.693784,42.9124741 344.849064,42.1299962 343.764249,41.4897774 C342.679434,40.8495586 341.443474,40.529454 340.056333,40.529454 C338.598057,40.4938863 337.290964,40.7250729 336.135013,41.2230209 C334.979062,41.7209689 333.992073,42.4145288 333.174016,43.3037216 C332.355958,44.1929144 331.733533,45.2510379 331.30672,46.4781239 C330.879908,47.70521 330.666505,49.0300874 330.666505,50.4527958 C330.666505,51.8755042 330.879908,53.2003816 331.30672,54.4274676 C331.733533,55.6545537 332.355958,56.7126772 333.174016,57.60187 C333.992073,58.4910628 334.979062,59.1846227 336.135013,59.6825707 C337.290964,60.1805187 338.598057,60.4117053 340.056333,60.3761376 C341.443474,60.3761376 342.679434,60.056033 343.764249,59.4158142 C344.849064,58.7755954 345.693784,57.9931175 346.298436,57.068357 L349.179406,59.2557603 C347.934536,60.7140365 346.529632,61.7899436 344.964653,62.483514 C343.399674,63.1770843 341.763584,63.5416479 340.056333,63.5772156 C338.028974,63.6127833 336.197264,63.3015705 334.56115,62.6435678 C332.925035,61.9855652 331.529023,61.0697104 330.373072,59.8959759 C329.217122,58.7222414 328.336834,57.3262297 327.732183,55.7078988 C327.127532,54.089568 326.825211,52.3378845 326.825211,50.4527958 C326.825211,48.5677071 327.127532,46.8160236 327.732183,45.1976927 C328.336834,43.5793619 329.217122,42.1833502 330.373072,41.0096157 C331.529023,39.8358812 332.925035,38.9200264 334.56115,38.2620237 C336.197264,37.6040211 338.028974,37.2928083 340.056333,37.328376 C341.763584,37.3639437 343.399674,37.7285073 344.964653,38.4220776 C346.529632,39.115648 347.934536,40.1915551 349.179406,41.6498313 L346.298436,43.8372346 Z" id="Stringsync" fill="#000000" sketch:type="MSShapeGroup"></path>
    </g>
</svg>