<?xml version="1.0" encoding="utf-8"?>
<!-- Generator: Adobe Illustrator 17.0.0, SVG Export Plug-In . SVG Version: 6.00 Build 0)  -->
<!DOCTYPE svg PUBLIC "-//W3C//DTD SVG 1.1//EN" "http://www.w3.org/Graphics/SVG/1.1/DTD/svg11.dtd">
<svg version="1.1" id="Capa_1" xmlns="http://www.w3.org/2000/svg" xmlns:xlink="http://www.w3.org/1999/xlink" x="0px" y="0px"
	 width="357.231px" height="82.271px" viewBox="-0.361 0 357.231 82.271" enable-background="new -0.361 0 357.231 82.271"
	 xml:space="preserve">
<g>
	<g id="sync">
		<path d="M10.924,12.013L0.003,1.092l0,29.123h29.123L18.205,19.294c12.013-12.013,31.671-12.013,43.684,0
			c3.64,3.64,6.189,8.373,7.645,12.741h10.921c-2.184-7.281-5.46-14.197-11.285-20.022C53.152-4.004,26.942-4.004,10.924,12.013z
			 M61.889,62.978c-12.013,12.013-31.671,12.013-43.684,0c-3.64-3.64-6.189-8.373-7.645-12.741H-0.361
			c2.184,7.281,5.46,14.197,11.285,20.022c16.017,16.017,42.228,16.017,58.245,0L80.09,81.179V52.057H50.968L61.889,62.978z"/>
	</g>
</g>
<text transform="matrix(0.99 0 0 1 96.5464 61.937)" font-family="'MicrosoftYaHei'" font-size="53.3513">Stringsync</text>
<path d="M40.56,48.219l-5.031-4.972l0.059-0.059c3.447-3.843,5.903-8.26,7.349-12.935h5.804v-3.972H34.875V22.32h-3.962v3.962
	H17.047v3.942h22.126c-1.337,3.823-3.427,7.448-6.279,10.617c-1.842-2.05-3.367-4.279-4.576-6.636h-3.962
	c1.446,3.229,3.427,6.279,5.903,9.033l-10.073,9.954l2.803,2.803l9.904-9.904l6.161,6.161C39.054,52.25,40.56,48.219,40.56,48.219z
	 M51.712,38.166H47.75l-8.914,23.77h3.962l2.228-5.943h9.409l2.228,5.943h3.962L51.712,38.166z M46.512,52.033l3.219-8.587
	l3.219,8.587H46.512z"/>
</svg>
